<svg width="228" height="228" viewBox="0 0 228 228" fill="none" xmlns="http://www.w3.org/2000/svg">
<path d="M227.129 113.78C227.074 142.106 216.424 169.387 197.274 190.259C178.124 211.131 151.858 224.085 123.642 226.574C95.4248 229.062 67.2978 220.905 44.79 203.707C22.2823 186.509 7.02215 161.513 2.00958 133.634C-3.00298 105.755 2.59469 77.0088 17.7021 53.0475C32.8095 29.0862 56.3337 11.6428 83.6501 4.14675C110.967 -3.34934 140.099 -0.355923 165.32 12.5385C190.542 25.4329 210.027 47.2956 219.946 73.8284C220.193 74.4947 220.435 75.1608 220.669 75.8335V75.8399C221.717 78.7969 222.639 81.8089 223.436 84.876C225.896 94.3135 227.137 104.027 227.129 113.78V113.78Z" fill="#D0CDEF"/>
<path d="M100.413 36.7173C95.2801 33.9415 89.581 32.3746 83.7504 32.136C77.9198 31.8975 72.1118 32.9936 66.7692 35.3408C62.0652 37.388 57.112 41.0605 55.5427 47.6922C61.8894 43.9466 70.1051 49.8646 71.7382 59.3583L71.357 59.4635C70.4944 66.0392 72.42 73.1985 76.1481 77.2758C76.4253 75.436 77.1088 73.6811 78.1489 72.1385C79.1891 70.5958 80.5598 69.3042 82.1614 68.3574C84.9005 66.5568 87.9307 65.2488 90.0214 62.1538C92.4999 58.4846 93.1293 53.1222 94.1139 48.2302C95.0985 43.3383 96.9665 38.0804 100.413 36.7173Z" fill="#2C2C2C"/>
<path d="M64.8866 92.6746C63.1289 95.3144 60.7811 96.9706 58.6744 99.0329C56.2423 101.245 54.6468 104.228 54.1564 107.479C53.8898 109.776 54.3022 112.111 54.2451 114.434C54.1881 116.756 53.4139 119.37 51.8339 119.948C49.34 120.849 47.4363 116.217 44.8729 115.893C42.8359 115.639 41.0021 118.844 41.5922 121.623C42.1823 124.402 44.9553 125.633 46.548 123.819C47.9885 126.236 46.9731 130.621 44.8093 131.363C44.5808 132.886 44.3525 134.403 44.1303 135.926C38.6605 132.099 33.1335 128.21 28.4823 122.606C23.3093 116.428 20.1007 108.844 19.2685 100.829C18.6657 94.3879 19.5604 87.0207 16.6035 82.0649C14.2365 78.0989 10.1754 77.2232 6.52032 77.4707C5.85406 77.5151 5.18152 77.5912 4.51514 77.6737C6.67064 71.1997 9.40827 64.9343 12.6945 58.9543C13.4381 58.6351 14.1292 58.2051 14.744 57.6788C18.1453 54.7917 19.6556 48.9474 22.4158 44.9052C22.5935 44.6451 22.7775 44.3913 22.9678 44.1438C25.7917 40.457 29.5735 38.5597 33.2286 36.7956C41.3191 32.8678 49.6444 28.8891 58.1856 29.4348L55.7552 29.6696C52.9188 37.6142 50.0802 45.5589 47.2395 53.5035C46.808 54.7218 46.3723 55.9422 45.9324 57.1649C44.3206 61.6829 42.658 66.4929 42.9056 71.5503C43.0516 74.5453 44.0922 77.7435 46.072 78.7715C47.9185 79.7233 49.9364 78.5557 51.7194 77.4008C52.4746 76.9185 53.2234 76.4362 53.9784 75.9476C56.6879 74.2026 59.6894 72.4131 62.5512 73.5807C65.1719 74.6467 67.1073 78.2067 67.4753 82.0457C67.8129 85.7776 66.9024 89.5159 64.8866 92.6746Z" fill="#2C2C2C"/>
<path d="M81.0015 146.914C73.088 142.042 65.1745 137.17 57.2609 132.297L57.3952 131.951C52.475 133.825 50.4322 142.571 51.2454 149.724C52.0585 156.876 54.8157 163.27 56.2086 170.239C58.0867 179.776 57.3779 189.642 54.1556 198.812C64.5614 187.136 73.7704 174.447 81.6445 160.933C82.7445 159.23 83.5827 157.372 84.1311 155.42C84.712 153.34 84.505 151.118 83.5497 149.181C82.902 148.226 82.0261 147.447 81.0015 146.914V146.914Z" fill="#2C2C2C"/>
<path d="M49.7697 58.2702C48.8405 60.2655 48.6973 62.5376 49.3687 64.6337C50.1495 66.3225 51.566 67.6344 53.3096 68.2837L57.6822 70.4511C59.1368 71.1722 60.7048 71.9004 62.1877 71.3072C63.9763 70.5916 65.2164 67.7876 64.8956 65.1844C64.5541 62.4143 62.8081 60.5089 61.1932 58.8862C58.9332 56.6155 56.6733 54.3447 54.4134 52.074L53.1398 53.6339C51.7623 54.9776 50.6227 56.5453 49.7697 58.2702V58.2702Z" fill="#2C2C2C"/>
<path d="M203.689 87.8838C205.656 88.347 207.623 88.8102 209.59 89.2734C209.248 95.9172 205.954 102.066 201.538 104.293C199.698 105.22 197.648 105.562 196.125 107.295C194.748 108.868 194.05 111.318 193.409 113.659C192.286 117.746 191.163 121.832 190.04 125.919C188.834 130.323 187.286 135.215 184.151 136.802C181.46 138.166 178.383 136.497 176.314 133.699C174.246 130.9 172.983 127.137 171.758 123.47C171.834 127.467 169.975 131.389 167.342 132.778C164.702 134.168 161.491 132.912 159.727 129.809C158.458 127.581 157.931 124.643 156.687 122.384C155.444 120.125 152.836 118.831 151.478 120.95C150.583 122.359 150.697 124.517 150.253 126.306C150.029 127.494 149.441 128.583 148.57 129.421C147.699 130.259 146.588 130.805 145.392 130.983C144.293 130.958 143.21 130.709 142.21 130.252C141.209 129.795 140.312 129.139 139.574 128.324C135.688 124.349 133.158 119.247 132.346 113.748C131.795 111.112 131.865 108.383 132.549 105.778C133.33 103.31 135.214 101.406 137.086 101.876C138.317 99.274 135.887 95.8221 133.698 96.1267C131.502 96.4313 129.782 98.7854 127.98 100.594C126.184 102.402 123.672 103.716 121.863 101.92C121.904 102.577 121.681 103.223 121.246 103.716C120.81 104.209 120.196 104.509 119.539 104.549C119.474 104.553 119.409 104.555 119.344 104.554C118.141 104.208 117.024 103.616 116.063 102.815C111.92 100.232 106.659 101.946 103.715 106.832C105.555 99.0011 108.252 90.0158 113.906 88.1755C116.216 87.4205 118.735 88.0423 120.918 86.7351C124.782 84.4191 125.563 75.6685 122.225 72.058C122.65 75.4718 122.568 79.4568 120.765 81.792C118.963 84.1272 115.181 82.6042 115.41 79.1523C115.358 79.6378 115.155 80.0946 114.828 80.4573C114.501 80.82 114.068 81.0699 113.59 81.1714C113.113 81.2728 112.615 81.2205 112.169 81.0219C111.723 80.8234 111.352 80.4888 111.107 80.066C109.908 78.2386 110.01 75.2498 110.86 73.0669C111.737 71.0899 112.994 69.3046 114.559 67.8128C117.574 64.583 120.632 61.315 124.122 59.2844C127.619 57.2538 131.654 56.5685 135.157 58.5864C137.004 59.6524 138.628 61.4292 140.513 62.3683C140.956 62.6431 141.448 62.828 141.963 62.9124C142.477 62.9968 143.003 62.9791 143.51 62.8603C144.018 62.7414 144.497 62.5238 144.92 62.2198C145.344 61.9158 145.703 61.5314 145.978 61.0886L145.978 61.0885C145.999 61.0544 146.02 61.0198 146.04 60.985C147.442 58.5229 146.782 54.8679 147.303 51.7903C148.235 46.3522 153.673 43.8076 156.688 47.3992C154.435 46.8218 152.106 49.4869 151.827 52.7168C151.541 55.9466 153.172 59.2083 155.355 60.1855C159.023 61.8099 162.614 57.7233 165.387 53.9414C168.281 49.9818 171.179 46.0244 174.081 42.069C174.544 41.3955 175.064 40.7629 175.635 40.178C176.544 39.2921 177.756 38.7848 179.025 38.7589C180.294 38.7329 181.525 39.1904 182.469 40.0385C185.401 42.4307 186.778 47.3358 189.183 50.7116C192.673 55.6167 197.896 56.8097 202.756 57.7615C206.379 58.4659 210.005 59.1744 213.633 59.8872C216.051 64.3858 218.16 69.0437 219.946 73.8285C213.294 76.8618 207.652 81.7398 203.689 87.8838V87.8838Z" fill="#2C2C2C"/>
<path d="M215.403 164.233C212.684 169.754 209.522 175.044 205.948 180.053C203.664 179.076 201.208 180.82 199.069 182.458C196.836 184.171 194.152 185.84 191.861 184.279C189.519 182.68 188.764 178.206 189.507 174.659C190.36 171.387 191.852 168.316 193.898 165.623C195.801 162.78 197.838 159.829 200.484 158.725C203.137 157.621 206.544 159.182 207.319 162.952L209.197 162.888C208.143 161.441 208.696 158.446 210.111 157.919C211.741 157.304 213.157 159.544 214.121 161.524C214.553 162.418 214.99 163.32 215.403 164.233Z" fill="#2C2C2C"/>
<path d="M143.466 137.43C139.429 137.684 136.231 132.714 134.106 127.825C131.981 122.935 130.042 117.344 126.399 114.855C124.318 113.433 121.945 113.238 119.687 112.549C118.406 112.225 117.221 111.601 116.23 110.729C115.239 109.856 114.47 108.759 113.987 107.53L111.426 106.496C107.843 108.286 104.563 110.626 101.702 113.429C98.4336 116.901 96.3977 121.352 95.9084 126.095C95.4192 131.221 97.2258 136.937 100.601 138.863C103.268 140.384 106.374 139.425 109.075 140.818C112.451 142.559 114.455 147.614 115.213 152.606C115.972 157.598 115.78 162.785 116.323 167.834C116.865 172.882 118.361 178.135 121.457 180.722C125.33 183.959 131.015 181.269 132.752 175.376C133.605 172.485 133.576 169.223 134.213 166.223C135.336 160.938 138.366 157.018 140.769 152.683C143.172 148.348 145.064 142.461 143.466 137.43Z" fill="#2C2C2C"/>
<path d="M103.572 85.5037C103.949 85.8503 104.3 86.2233 104.624 86.6198C104.958 87.1971 105.129 87.8548 105.118 88.522C105.107 89.1893 104.913 89.8408 104.559 90.4063C105.045 90.3786 105.521 90.2504 105.955 90.0297C106.389 89.809 106.773 89.5006 107.082 89.1241C107.819 88.2849 108.467 87.3718 109.016 86.3994C109.274 86.0664 109.459 85.6822 109.557 85.2724C109.655 84.8626 109.665 84.4366 109.586 84.0226C109.396 83.4783 108.945 83.2462 108.629 82.8368C108.19 82.0365 107.891 81.1675 107.744 80.267C107.568 79.4229 107.161 78.6445 106.568 78.0192C105.974 77.3938 105.218 76.9464 104.385 76.7271L104.587 76.7657C104.243 76.9701 103.971 77.2771 103.81 77.6437C103.648 78.0103 103.606 78.4181 103.688 78.8101C103.811 79.6019 104.32 80.2593 104.269 81.0669C104.196 82.2282 103.036 82.7732 102.964 83.9347C102.953 84.5173 103.171 85.081 103.572 85.5037V85.5037Z" fill="#2C2C2C"/>
<path d="M96.655 65.769L96.673 65.7654C96.7972 65.6522 96.9124 65.5295 97.0175 65.3984L96.655 65.769Z" fill="#2C2C2C"/>
<path d="M97.8658 71.22C98.3508 70.7945 98.7095 70.244 98.9028 69.6285C99.0961 69.013 99.1165 68.3562 98.9619 67.7298C98.6686 66.4094 97.6306 65.5216 96.6731 65.7654C96.3953 66.047 96.0505 66.2534 95.6711 66.3651C95.2916 66.4768 94.8901 66.4902 94.504 66.404C93.9121 66.2516 93.2622 65.8592 92.7488 66.3052C92.4551 66.6383 92.2496 67.0396 92.1509 67.4726C91.9609 68.056 91.7709 68.6393 91.5808 69.2225C91.4906 69.4313 91.4671 69.6629 91.5134 69.8856C91.5498 69.9748 91.6086 70.0532 91.684 70.1132C91.7595 70.1732 91.8491 70.2127 91.9442 70.2281L95.3646 71.2364C95.7572 71.4173 96.1848 71.5096 96.6171 71.5068C97.0493 71.5039 97.4756 71.406 97.8658 71.22V71.22Z" fill="#2C2C2C"/>
<path d="M183.938 146.478C183.411 145.615 182.884 144.752 182.357 143.889C181.839 142.89 181.131 142.001 180.273 141.273C179.898 140.959 179.413 140.806 178.925 140.849C178.438 140.892 177.987 141.127 177.673 141.503L177.673 141.503L177.645 141.536L177.709 142.029C179.12 143.542 180.082 145.418 180.486 147.447C180.606 148.329 180.565 149.242 180.67 150.128C180.681 150.538 180.773 150.943 180.94 151.318C181.108 151.693 181.348 152.031 181.646 152.314C182.476 152.868 183.451 152.051 184.041 151.053C184.569 150.234 184.806 149.261 184.714 148.29C184.582 147.639 184.318 147.022 183.938 146.478V146.478Z" fill="#2C2C2C"/>
<path d="M192.205 147.6C192.306 146.793 192.24 145.973 192.012 145.191C191.975 144.134 192.255 143.09 192.817 142.193C193.375 141.348 193.799 140.42 194.071 139.444C194.186 138.999 194.165 138.531 194.011 138.098C193.837 137.706 193.414 137.527 193.172 137.838L193.69 138.172C192.99 138.047 192.27 138.081 191.585 138.274C191.195 138.423 190.846 138.665 190.568 138.978C190.29 139.291 190.092 139.666 189.99 140.072C189.904 140.705 189.764 141.329 189.572 141.938C189.262 142.574 188.663 142.785 188.287 143.343C188.03 143.838 187.901 144.389 187.91 144.946C187.919 145.504 188.067 146.05 188.34 146.536C188.813 147.331 189.564 147.922 190.448 148.194C191.081 148.421 191.915 148.433 192.205 147.6Z" fill="#2C2C2C"/>
<path d="M206.929 152.043C207.157 152.639 207.464 153.202 207.841 153.717C208.546 154.427 209.504 153.991 210.359 153.818C211.135 153.696 211.929 153.785 212.658 154.078C213.388 154.37 214.024 154.855 214.5 155.479C214.168 153.825 213.445 152.275 212.39 150.959C211.335 149.643 209.979 148.599 208.437 147.915C206.434 147.222 204.322 146.892 202.202 146.94L201.84 147.033C202.763 149.719 205.66 149.659 206.929 152.043Z" fill="#2C2C2C"/>
<path d="M144.571 157.536L144.576 157.548L144.681 157.345L144.571 157.536Z" fill="#2C2C2C"/>
<path d="M142.337 161.859C141.85 162.744 141.431 163.664 141.084 164.612C140.624 166.148 140.32 167.726 140.176 169.322C140.062 170.23 140.027 171.389 140.596 171.832C140.759 171.94 140.957 171.985 141.151 171.959C141.345 171.932 141.523 171.836 141.651 171.688C141.967 171.354 142.226 170.97 142.416 170.551C143.534 168.626 144.402 166.566 144.999 164.422C145.622 162.147 145.473 159.729 144.576 157.548C143.83 158.985 143.083 160.422 142.337 161.859Z" fill="#2C2C2C"/>
<path d="M120.79 46.6779C121.144 47.0247 121.593 47.2601 122.08 47.3551C122.567 47.4502 123.071 47.4006 123.53 47.2127C124.481 46.797 125.353 46.2209 126.109 45.5095C126.734 45.0466 127.265 44.4677 127.672 43.8043C127.896 43.4079 128.04 42.9711 128.095 42.519C128.149 42.0669 128.114 41.6084 127.992 41.1698C127.817 40.7497 127.538 40.381 127.181 40.0987C126.824 39.8164 126.401 39.6297 125.952 39.5564C124.687 39.1811 123.421 38.8058 122.156 38.4306L123.071 37.6055C122.129 37.1 121.087 38.0381 120.498 39.1996C120.121 39.958 119.858 40.7681 119.717 41.6036C119.517 42.4765 119.509 43.3826 119.695 44.2589C119.88 45.1351 120.253 45.9606 120.79 46.6779V46.6779Z" fill="#2C2C2C"/>
<path d="M143.132 39.1773C143.489 39.5705 143.982 39.8132 144.511 39.8563C145.04 39.8993 145.566 39.7394 145.981 39.4091C146.339 39.1404 146.636 38.7995 146.853 38.4084C147.07 38.0173 147.203 37.5848 147.242 37.1392C147.331 36.1437 146.839 35.0374 146.136 34.9514L146.297 34.0194C144.943 33.7748 143.276 33.7259 142.551 35.3703C142.306 36.0003 142.231 36.6834 142.333 37.3514C142.435 38.0195 142.71 38.6491 143.132 39.1773V39.1773Z" fill="#2C2C2C"/>
<path d="M51.0719 106.222C55.7372 106.222 59.5193 101.15 59.5193 94.8942C59.5193 88.6383 55.7372 83.5668 51.0719 83.5668C46.4065 83.5668 42.6245 88.6383 42.6245 94.8942C42.6245 101.15 46.4065 106.222 51.0719 106.222Z" fill="#E6E6E6"/>
</svg>
